# xmcd
#
# Track frame offsets: 
#        150
#        17241
#        33733
#        50668
#        66891
#        83184
#        98484
#        114786
#        127760
#        142761
#        157610
#        172452
#
# Disc length: 2494 seconds
#
# Revision: 0
# Processed by: cddbd v1.5.2PL0 Copyright (c) Steve Scherf et al.
# Submitted via: ExactAudioCopy v1.0b1
#
DISCID=9209bc0c
DTITLE=Various Artist - CD-X Vol. 517
DYEAR=2011
DGENRE=Country
TTITLE0=David Nail - Let It Rain
TTITLE1=Kip Moore - Mary Was The Marrying Kind
TTITLE2=The Dirt Drifters - Something Better
TTITLE3=Gretchen Wilson - I'd Love To Be Your Last (Radio Remix)
TTITLE4=Gretchen Wilson - I'd Love To Be Your Last (Album Version)
TTITLE5=Bradley Matthew - Common Man
TTITLE6=Jackie Arredondo - Insane
TTITLE7=Michelle Turley - My X Husband
TTITLE8=Jadi Norris - Workin' Man's Saturday Night
TTITLE9=Tommy Steele - What Kind Of Man Would I Be
TTITLE10=Emil - You Must Have Made Somebody Happy
TTITLE11=Reckless Johnny Wales - (Gonna Have To) Do It Again
EXTD=
EXTT0=
EXTT1=
EXTT2=
EXTT3=
EXTT4=
EXTT5=
EXTT6=
EXTT7=
EXTT8=
EXTT9=
EXTT10=
EXTT11=
PLAYORDER=
